<?xml version="1.0" encoding="utf-8"?>
<!-- Generator: Adobe Illustrator 26.0.3, SVG Export Plug-In . SVG Version: 6.00 Build 0)  -->
<svg version="1.1" xmlns="http://www.w3.org/2000/svg" xmlns:xlink="http://www.w3.org/1999/xlink" x="0px" y="0px"
	 viewBox="0 0 1224 792" enable-background="new 0 0 1224 792" xml:space="preserve">
<g id="Layer_2_copy_3">
	<path fill="none" stroke="#000000" stroke-miterlimit="10" d="M581.55,552.26c-16.67-0.42-46.68-2.5-55.85-5
		s-33.76-23.34-40.01-29.17c-6.25-5.83-34.59-58.35-35.01-77.94c-0.42-19.59,5-76.27,14.17-90.86
		c9.17-14.59,32.51-55.01,65.85-71.27s53.76-17.09,57.1-19.59c3.33-2.5,30.84,0.42,34.17,0c3.33-0.42,5-3.33,6.25-6.25
		c1.25-2.92,5-2.5,4.58,0c-0.42,2.5,5.83-0.83,6.67,0.83c0.83,1.67-1.25,5.42-2.92,6.25c-1.67,0.83,4.17-2.08,6.25-2.5
		c2.08-0.42,0.42,4.58,0,6.25c11.67,0.42,42.09,11.67,63.77,28.34s27.92,29.59,32.51,29.17c2.92,6.25,5,15.84,7.92,16.25
		c2.92,0.42,11.25,28.76,11.25,30.84s-0.83,9.17,5.42,15.42c0.05,8.13-1.88,35.58,0,41.68c-2.08,6.67-4.69,24.03-3.61,26.7
		c-1.46,2.29-3.2,2.2-3.82,7.69c-1.37,4.51-6.11,11.81-6.04,12.64c1.81,1.81,1.94,8.96-3.06,9.72c-1.53,3.4-6.46,8.47-7.36,9.1
		c0.83,2.15-2.64,9.79-7.57,14.45c-0.9,3.82-7.99,10.49-13.2,13.75c-0.14,3.26,0.21,3.68-0.69,4.38c-0.9,0.69-9.72,5.35-11.6,7.29
		c-2.01,0.07-5.07,0.83-6.46,2.5c-1.39,1.67-3.75,1.46-4.51,1.6c-0.76,0.14-2.5,3.54-3.33,3.96c-0.83,0.42-7.71,3.82-9.17,3.89
		c-1.74,1.25-8.82,5.56-25.21,3.82c-3.33,3.89-13.75,10.21-16.95,10.7c-3.2,0.49-21.19-2.99-24.83-3.72
		C610.72,553.82,588.95,553.82,581.55,552.26z"/>
</g>
<g id="Layer_2">
	<path fill="#A9D566" d="M526,523c1-4,6-9,2-12s-9-4-10-8c-9-25-19-55-5-80c8,9,20,0,30,0c-1-2,1-3,1-5c4,0,8,1,12-1c2-2,4-7,6-8
		c7-4,13-8,18-15c2-2,6-1,9-1c-1-8,7-16,1-25c-1-2,7,0,9-3c5-9,10-15,19-20c1-1-2-3-1-4c13-9,28-15,28-32c0-1,2-4,2-5
		c7-13,0-26-4-39c0-0.36,0.26-1.11,0.73-1.92c-0.32-0.02-0.63-0.05-0.92-0.06c0.42-1.67,2.08-6.67,0-6.25
		c-2.08,0.42-7.92,3.33-6.25,2.5c1.67-0.83,3.75-4.58,2.92-6.25c-0.83-1.67-7.09,1.67-6.67-0.83s-3.33-2.92-4.58,0
		s-2.92,5.83-6.25,6.25c-3.33,0.42-30.84-2.5-34.17,0c-3.33,2.5-23.76,3.33-57.1,19.59c-33.34,16.25-56.68,56.68-65.85,71.27
		c-9.17,14.59-14.59,71.27-14.17,90.86c0.42,19.59,28.76,72.1,35.01,77.94c6.25,5.83,30.84,26.67,40.01,29.17
		c3.13,0.85,8.68,1.66,15.3,2.36C540.88,537.78,539.42,523,526,523z"/>
	<path fill="#BEDD8E" d="M763.68,383.05c-6.25-6.25-5.42-13.34-5.42-15.42c0-2.08-8.34-30.42-11.25-30.84
		c-2.92-0.42-5-10-7.92-16.25c-4.58,0.42-10.84-12.5-32.51-29.17c-21.13-16.25-50.57-27.35-62.84-28.28
		c-0.47,0.81-0.73,1.56-0.73,1.92c4,13,11,26,4,39c0,1-1.63,4.07-2,5c-6.47,16.41-11.98,24.67-28,32c-1,1,2,3,1,4c-9,5-14,11-19,20
		c-2,3-10,1-9,3c6,9-2,17-1,25c-3,0-7-1-9,1c-5,7-11,11-18,15c-2,1-4,6-6,8c-4,2-8,1-12,1c0,2-2,3-1,5c-10,0-22,9-30,0
		c-14,25-4,55,5,80c1,4,6,5,10,8s-1,8-2,12c13.42,0,14.88,14.78,15,26.62c12.79,1.36,29.56,2.36,40.55,2.64
		c7.4,1.56,29.17,1.56,34.7,0.94c3.65,0.73,21.64,4.2,24.83,3.72c3.2-0.49,13.61-6.81,16.95-10.7c16.39,1.74,23.48-2.57,25.21-3.82
		c1.46-0.07,8.34-3.47,9.17-3.89c0.83-0.42,2.57-3.82,3.33-3.96c0.76-0.14,3.13,0.07,4.51-1.6c1.39-1.67,4.45-2.43,6.46-2.5
		c1.88-1.94,10.7-6.6,11.6-7.29c0.9-0.69,0.56-1.11,0.69-4.38c5.21-3.26,12.29-9.93,13.2-13.75c4.93-4.65,8.4-12.29,7.57-14.45
		c0.9-0.63,5.83-5.7,7.36-9.1c5-0.76,4.86-7.92,3.06-9.72c-0.07-0.83,4.67-8.13,6.04-12.64c0.63-5.49,2.36-5.39,3.82-7.69
		c-1.08-2.67,1.52-20.03,3.61-26.7C761.8,418.63,763.73,391.18,763.68,383.05z"/>
</g>
<g id="Layer_3">
	<path fill="#E1F1C1" d="M658.02,546.22c7.54-9.32,17.85-30.22,23.96-35.22c6.11-5,50.01-25.56,59.46-36.68
		c9.45-11.11,13.61-19.45,14.17-24.45c-5,6.95-13.34,19.73-18.06,23.62c-4.72,3.89-48.07,27.51-52.79,29.17
		c1.94-6.39,1.67-19.45,6.67-30.56c5-11.11,57.79-61.68,58.07-70.02c-6.67,5.56-48.62,55.01-59.18,59.18c1.67-10-5-49.18,1.11-59.18
		c6.11-10,37.64-41.85,42.54-59.77c-12.09,14.9-14.2,18.37-27.82,30.04c-13.61,11.67-15,15.28-18.62,16.95
		c-2.78-8.34-8.61-18.34-3.89-29.73c4.72-11.39,14.17-24.45,14.17-28.62c-10,10.84-14.73,21.39-16.67,21.12
		c-8.06-17.5-23.06-34.73-21.39-43.34c1.67-8.61,9.45-18.62,9.17-25.28s-1.02-11.64-3.56-14.57c-2.83,7.63,3.29,12.35-4.49,23.19
		s-5,16.67-7.22,18.06c-2.22,1.39-5-2.5-6.39-4.17l-1.97,3.58c4.98,2.75,6.14,6.14,13.34,15.76c-8.13,0.38-17.92,2.32-17.92,2.32
		c-3.76,3.45,14.34,5.01,23.51,11.4c9.17,6.39,10,23.34,13.31,41.4c-6.97-6.67-39.98-31.12-61.1-29.73
		c25.01,1.39,44.87,27.65,55.99,36.81c4.17,2.5,3.01,22.37-1.25,45.15c-7.32-5.56-38.62-36.95-77.24-36.68
		c31.4,5.83,66.4,37.23,70.85,41.95c4.45,4.72,2.22,4.72,1.39,30.29c-5.28-6.95-35.43-24.91-63.07-28.9
		c19.45,4.72,59.18,38.62,59.74,41.95c0.56,3.33,1.39,11.67-7.42,16.1c-8.81,4.43-110.94-47.49-131.78-52.22
		c5.56,8.06,127.81,61.68,129.2,64.18c1.39,2.5,1.39,6.67-9.45,12.23c-4.72-1.67-65.57-25.28-81.96-26.67
		c-10.6-2.29-26.95-0.56-35.01,2.5c-4.68,1.78,14.03-1.07,34.17,1.67c20.22,2.74,80.85,25.01,80.02,29.17
		c-0.83,4.17-12.78,17.23-24.35,24.97c0,0,21.76,4.83,24.83,3.72S653.47,551.84,658.02,546.22z"/>
</g>
<g id="Layer_2_copy">
	<path fill="none" d="M763.68,383.05c-6.25-6.25-5.42-13.34-5.42-15.42c0-2.08-8.34-30.42-11.25-30.84c-2.92-0.42-5-10-7.92-16.25
		c-4.58,0.42-10.84-12.5-32.51-29.17c-21.67-16.67-52.1-27.92-63.77-28.34c0.42-1.67,2.08-6.67,0-6.25
		c-2.08,0.42-7.92,3.33-6.25,2.5c1.67-0.83,3.75-4.58,2.92-6.25c-0.83-1.67-7.09,1.67-6.67-0.83s-3.33-2.92-4.58,0
		s-2.92,5.83-6.25,6.25c-3.33,0.42-30.84-2.5-34.17,0c-3.33,2.5-23.76,3.33-57.1,19.59c-33.34,16.25-56.68,56.68-65.85,71.27
		c-9.17,14.59-14.59,71.27-14.17,90.86c0.42,19.59,28.76,72.1,35.01,77.94c6.25,5.83,30.84,26.67,40.01,29.17s39.18,4.58,55.85,5
		c7.4,1.56,29.17,1.56,34.7,0.94c3.65,0.73,21.64,4.2,24.83,3.72c3.2-0.49,13.61-6.81,16.95-10.7c16.39,1.74,23.48-2.57,25.21-3.82
		c1.46-0.07,8.34-3.47,9.17-3.89c0.83-0.42,2.57-3.82,3.33-3.96c0.76-0.14,3.13,0.07,4.51-1.6c1.39-1.67,4.45-2.43,6.46-2.5
		c1.88-1.94,10.7-6.6,11.6-7.29c0.9-0.69,0.56-1.11,0.69-4.38c5.21-3.26,12.29-9.93,13.2-13.75c4.93-4.65,8.4-12.29,7.57-14.45
		c0.9-0.63,5.83-5.7,7.36-9.1c5-0.76,4.86-7.92,3.06-9.72c-0.07-0.83,4.67-8.13,6.04-12.64c0.63-5.49,2.36-5.39,3.82-7.69
		c-1.08-2.67,1.52-20.03,3.61-26.7C761.8,418.63,763.73,391.18,763.68,383.05z"/>
	<g>
		<path d="M642.81,263.02c-0.35,1.61,0.09,3.29,0.41,4.88c1.15,4.81,3.11,9.41,5.55,13.69c0.87,1.41,1.4,3.03,1.63,4.68
			c0.91,8.27-1.87,16.52-5.2,23.98c-0.61,1.55-1.79,2.77-2.55,4.2c-0.59,1.46-0.41,3.14-0.32,4.77c0,0,0.14,2.48,0.14,2.48
			l0.04,1.24c0.28,2.29-1.56,3.95-3.17,5.26c-5.25,4.05-11.36,6.75-16.81,10.45c-1.47,1.06-3.04,2.11-3.91,3.66
			c-0.25,0.53-0.34,1.16-0.55,1.74c-0.27,0.64-0.89,1.61-1.33,2.18c-4.16,5.12-10.33,8.38-14.01,13.82
			c-1.72,4.07-6.25,5.5-10.02,7.02c-0.91,0.45-2.29,0.88-2.44,1.93c0.2,1.1,1.27,2.01,1.65,3.08c1.51,3.03,2.08,6.48,1.79,9.83
			c-0.27,3.43-1.49,6.7-3.13,9.68c-4.1,1.14-8.14,2.58-11.82,4.67c-3.51,2.02-6.98,4.79-8.31,8.73c0,0-0.13,0.38-0.13,0.38
			c-1.46-0.36-3.02,0.24-4.48,1.02c-3.89,2.24-7.72,5.52-9.4,9.77c-5.33-0.12-11.41,1.67-13.7,6.91c0,0-0.15,0.32-0.15,0.32
			l-0.35-0.05c-5.16-0.55-10.13,2.12-15.01,3.57c-3.13,0.87-6.62,2.2-9.92,1.2c-2.07-0.8-2.65-3.29-3.28-5.09
			c0,0,0.35,0.28,0.35,0.28c-1.21,0.03-2.37,1.46-3.13,2.4c-2.04,2.85-4.05,6.32-3.96,9.91c0.97,6.63,1.9,13.29,2.52,19.97
			c0.47,5.2,0.91,10.49-0.12,15.66c-0.96,6.58-0.03,13.41,2.64,19.51c1.69,4.18,4.38,7.73,6.68,11.59c0.59,1.32,1.61,2.41,2.61,3.5
			c2.02,2.17,4.24,4.18,6.05,6.61c0.64,0.94,1.32,1.96,1.39,3.14c0.04,1.91-0.84,3.71-1.55,5.41c-0.26,0.67-0.64,1.41-0.57,2.02
			c0.06,0.29,0.38,0.28,0.78,0.32c1.89,0.27,3.55,1.34,5.06,2.43c2.44,1.78,4.25,4.39,4.79,7.37c0.83,2.87,2.73,5.3,3.67,8.13
			c0.21,0.72,0.32,1.47,0.24,2.22c-0.19,1.09-0.5,2.28,0.32,3.19c0.23,0.28,0.51,0.59,0.5,0.98c-0.01,0.76-0.55,1.38-0.95,1.99
			c0.4-0.59,0.93-1.24,0.93-1.99c-0.07-0.75-0.93-1.18-1.02-1.95c-0.19-0.74,0.07-1.5,0.15-2.22c0.07-0.74-0.05-1.48-0.26-2.19
			c-0.97-2.82-2.89-5.22-3.75-8.1c-0.38-1.44-0.77-2.87-1.68-4.07c-1.93-2.59-4.81-4.85-8.03-5.46c-1.83,0.03-0.92-1.77-0.52-2.8
			c0.57-1.37,1.18-2.74,1.4-4.18c0.71-3.62-5.14-7.82-7.34-10.48c-2.17-2.09-3.3-4.92-5.1-7.36c-5.09-7.41-8.14-16.39-7.33-25.44
			c0.07-1.25,0.37-3.2,0.57-4.47c0.65-4.38,0.09-8.87-0.26-13.28c-0.64-6.65-1.6-13.31-2.59-19.93c-0.16-3.87,1.92-7.44,4.08-10.51
			c1.02-1.23,2.28-2.91,4.1-2.7c0.8,2.43,1.55,5.35,4.69,5.12c7.95-0.16,14.89-5.89,22.98-5.2c0,0-0.49,0.27-0.49,0.27
			c0.6-1.3,1.41-2.51,2.44-3.51c3.08-3.02,7.61-3.98,11.77-4.01c0,0-0.46,0.32-0.46,0.32c1.71-4.55,9.37-11.68,14.47-11.13
			c0,0-0.57,0.31-0.57,0.31c3.21-8.29,12.81-11.54,20.62-13.88c0,0-0.26,0.21-0.26,0.21c3.2-5.59,4.24-12.68,1.29-18.58
			c-0.58-1.53-2.81-3.26-1.05-4.79c1.38-1.14,2.99-1.53,4.56-2.21c3.05-1.16,6.02-2.64,7.39-5.77c1.86-2.87,4.48-4.97,6.96-7.13
			c2.78-2.43,5.78-4.67,7.85-7.7c0.21-0.34,0.37-0.7,0.55-1.04c0,0,0.33-1.13,0.33-1.13c0.06-0.23,0.12-0.46,0.24-0.65
			c3.17-6.02,24.71-12.69,23.93-19.07c0,0-0.03-1.23-0.03-1.23s-0.14-2.46-0.14-2.46c-0.07-1.63-0.29-3.36,0.38-5.01
			c2.84-4.05,4.73-8.65,6.15-13.4c1.67-6.13,3.51-13.27,0.27-19.17c-2.41-4.32-4.33-8.95-5.43-13.78
			C642.88,266.31,642.44,264.64,642.81,263.02L642.81,263.02z"/>
	</g>
</g>
</svg>
